<?xml version="1.0" encoding="UTF-8"?>
<svg version="1.1" xmlns="http://www.w3.org/2000/svg" width="1024" height="1024">
<path d="M0 0 C93.06 0 186.12 0 282 0 C282 0.33 282 0.66 282 1 C282.8818396 1.15033691 282.8818396 1.15033691 283.78149414 1.30371094 C295.691034 3.35231438 307.40854526 5.5349388 319 9 C319.97324219 9.28359375 320.94648438 9.5671875 321.94921875 9.859375 C335.21426728 13.98547468 347.81794618 20.02588643 359.78613281 27.0300293 C362.36710189 28.53988942 364.81585345 29.93398005 367.63671875 30.9453125 C370.80346334 32.35857041 372.59977516 34.5126263 375 37 C377.08735995 38.63835038 379.17969116 40.23710125 381.3125 41.8125 C386.65360316 45.83565883 391.41148783 50.12401477 396 55 C397.2065625 56.175625 397.2065625 56.175625 398.4375 57.375 C405.0240084 64.12215494 410.87491319 70.98876321 416.3125 78.6875 C416.81595947 79.4000293 417.31941895 80.11255859 417.83813477 80.84667969 C426 92.57927581 426 92.57927581 426 96 C426.66 96.33 427.32 96.66 428 97 C438.62947582 117.69039829 444.07015076 141.06922582 447 164 C447.18433594 165.29035156 447.36867188 166.58070313 447.55859375 167.91015625 C448.38087514 175.58588443 448.24447956 183.35100703 448.25 191.0625 C448.25067474 191.90869904 448.25134949 192.75489807 448.25204468 193.6267395 C448.23438085 207.60708317 447.52677062 221.22005849 445 235 C444.82307617 235.96921387 444.64615234 236.93842773 444.46386719 237.93701172 C441.51823213 253.54786001 437.25797748 268.39805256 431 283 C530 283 629 283 731 283 C731 380 731 380 723 389 C721.54780908 390.73782847 720.10745164 392.48573143 718.6875 394.25 C715.3214454 398.39953283 711.90083819 402.49443306 708.4375 406.5625 C705.2324822 410.33077724 702.07311801 414.12246664 699 418 C695.47116597 422.45253701 691.81770671 426.78685979 688.13671875 431.11328125 C685.21995487 434.54571609 682.34306574 438.00592815 679.5 441.5 C676.2117626 445.53983452 672.87268539 449.53083277 669.5 453.5 C663.86214514 460.13770996 658.34635423 466.87058664 652.86328125 473.63671875 C648.12415316 479.46491038 643.27845775 485.1873229 638.37402344 490.87597656 C634.83613557 494.99184739 631.4197799 499.18658561 628.0546875 503.4453125 C625.60811491 506.48724876 623.09163683 509.46416077 620.5625 512.4375 C616.49025536 517.2266207 612.47518265 522.0561712 608.50390625 526.9296875 C601.11448343 535.99066463 593.7018273 545.03232003 586.125 553.9375 C582.41062577 558.30520612 578.77966015 562.72810194 575.21484375 567.21875 C568.42755545 575.74176459 561.56682181 584.20687676 554.5 592.5 C550.33564554 597.38912411 546.24222384 602.33204012 542.1875 607.3125 C541.66027344 607.95832031 541.13304687 608.60414063 540.58984375 609.26953125 C537.41861729 613.17750729 534.35506048 617.14949699 531.36352539 621.19677734 C528.39412089 625.12372839 525.12944342 628.78091822 521.78515625 632.390625 C516.63464354 637.95610792 511.83004495 643.6387944 507.20117188 649.63989258 C503.41028103 654.5382574 499.43839846 659.25938123 495.35180664 663.91357422 C492.78312131 666.56975785 492.78312131 666.56975785 492 670 C571.2 670.33 650.4 670.66 732 671 C732 706.31 732 741.62 732 778 C731 779 731 779 728.25969356 779.1241985 C727.02066613 779.12381878 725.78163869 779.12343906 724.50506496 779.12304783 C723.81505466 779.12420167 723.12504435 779.12535552 722.41412464 779.12654433 C720.07288883 779.12921764 717.73172008 779.12468301 715.39048767 779.12025452 C713.7067059 779.12069007 712.0229242 779.12156469 710.33914286 779.12284368 C705.68955152 779.12509171 701.03998299 779.12106318 696.39039457 779.11606562 C691.38491207 779.11176569 686.37943097 779.11320722 681.37394714 779.1139679 C672.69407278 779.11449342 664.0142059 779.11134363 655.33433342 779.10573006 C642.78454032 779.09761893 630.23475086 779.09500024 617.68495543 779.09374207 C597.32601966 779.09155093 576.96708789 779.0848892 556.6081543 779.07543945 C536.82592794 779.06626691 517.04370266 779.05918531 497.26147461 779.05493164 C496.04304314 779.05466892 494.82461166 779.05440619 493.56925803 779.05413551 C487.4570276 779.05283052 481.34479716 779.0515668 475.23256671 779.05032361 C424.48837505 779.03994909 373.74418772 779.02232912 323 779 C321.91499576 775.05239873 321.80912271 771.24938997 321.75952148 767.17724609 C321.74652512 766.39293213 321.73352875 765.60861816 321.72013855 764.80053711 C321.59346079 756.60540634 321.53669203 748.40926819 321.48510742 740.21337891 C321.45838535 736.33128796 321.40968078 732.45042859 321.34155273 728.56884766 C321.25930227 723.86971612 321.21687798 719.17175517 321.20204353 714.4719429 C321.18984788 712.68818034 321.16393611 710.90445321 321.12359428 709.12110519 C320.78700146 693.45512678 320.78700146 693.45512678 325.87158203 687.04125977 C327.21681941 685.66331271 328.59028715 684.31191135 330 683 C330.97315185 681.86914366 331.93211074 680.72579036 332.87109375 679.56640625 C333.71800781 678.57511719 334.56492187 677.58382812 335.4375 676.5625 C338.83320667 672.57419078 342.1937942 668.56326187 345.5 664.5 C348.78825468 660.46014426 352.12800121 656.46976751 355.5 652.5 C356.88179878 650.86786833 358.26288516 649.2351378 359.64355469 647.60205078 C360.54355469 646.53909182 361.44523348 645.47755188 362.34863281 644.41748047 C363.61410981 642.9298169 364.86976714 641.43381727 366.125 639.9375 C366.84945313 639.08027344 367.57390625 638.22304688 368.3203125 637.33984375 C370.11199881 635.16524358 370.11199881 635.16524358 370.4921875 632.81640625 C370.65976562 632.21699219 370.82734375 631.61757813 371 631 C372.32972012 630.32615534 373.66391381 629.6611323 375 629 C376.84263672 627.05721997 378.55450264 625.12543517 380.25 623.0625 C380.68957031 622.54365234 381.12914062 622.02480469 381.58203125 621.49023438 C386.01888826 616.1748544 389.90352665 610.63265085 394 605 C368.26 604.67 342.52 604.34 316 604 C302.66666667 579.55555556 302.66666667 579.55555556 298.3046875 571.265625 C297.07286787 568.89960274 297.07286787 568.89960274 295 567 C294.33700904 565.83593552 293.71614773 564.64745538 293.125 563.4453125 C292.77953125 562.74792969 292.4340625 562.05054688 292.078125 561.33203125 C291.72234375 560.60371094 291.3665625 559.87539063 291 559.125 C290.64421875 558.40441406 290.2884375 557.68382812 289.921875 556.94140625 C289.25597524 555.59221383 288.59172572 554.24220472 287.9296875 552.89111328 C287.62289063 552.2670459 287.31609375 551.64297852 287 551 C286.67257812 550.30245605 286.34515625 549.60491211 286.0078125 548.88623047 C285.02988462 546.83625661 285.02988462 546.83625661 283 545 C282.30608257 543.34449379 281.6427957 541.67601787 281 540 C279.26187104 536.39920768 277.40706588 532.85974208 275.5625 529.3125 C275.07201172 528.35021484 274.58152344 527.38792969 274.07617188 526.39648438 C273.35977539 525.01879883 273.35977539 525.01879883 272.62890625 523.61328125 C272.19650635 522.77579346 271.76410645 521.93830566 271.31860352 521.07543945 C270.01873606 518.72011174 270.01873606 518.72011174 267 517 C267 516.01 267 515.02 267 514 C266.18623968 512.23219464 265.29261575 510.50071679 264.359375 508.79296875 C263.78952881 507.74278564 263.21968262 506.69260254 262.63256836 505.6105957 C262.0113208 504.48097412 261.39007324 503.35135254 260.75 502.1875 C260.10696352 501.00835082 259.46447288 499.82890382 258.82250977 498.64916992 C257.51341882 496.24572289 256.20080462 493.84425299 254.88525391 491.44433594 C253.20021935 488.36579831 251.52501165 485.28226985 249.85546875 482.1953125 C245.39927271 473.96769266 240.88826494 465.77833034 236.24731445 457.65332031 C230.21923549 447.09760521 224.52256232 436.40846976 218.96948242 425.59545898 C215.08053848 418.03639618 211.07159353 410.57251642 206.828125 403.20703125 C204.82640281 399.69546305 202.96173667 396.12580547 201.16796875 392.50390625 C199.58187287 390.46160888 198.53696352 390.4529687 196 390 C193.96875752 389.91807064 191.93496997 389.89251833 189.90209961 389.90234375 C188.05514748 389.90729858 188.05514748 389.90729858 186.17088318 389.91235352 C185.51607908 389.91647247 184.86127499 389.92059143 184.18662834 389.92483521 C182.13137145 389.93763057 180.07617931 389.94412229 178.02088928 389.94897461 C173.65973042 389.96038599 169.29862504 389.97963379 164.9375 390 C159.87972453 390.02359879 154.82197962 390.04398687 149.76416206 390.05593872 C147.73945657 390.0624212 145.71484482 390.07492753 143.69017029 390.08764648 C142.46202103 390.09094971 141.23387177 390.09425293 139.96850586 390.09765625 C138.34446083 390.10551147 138.34446083 390.10551147 136.68760681 390.11352539 C134 390 134 390 131 389 C131.00607553 390.10197692 131.01215105 391.20395384 131.01841068 392.339324 C131.16578205 419.1110511 131.3074109 445.88280384 131.4429636 472.65459347 C131.50864889 485.60104388 131.57622331 498.54747936 131.64819336 511.49389648 C131.71089292 522.77353323 131.7701007 534.05318187 131.82505554 545.3328591 C131.85429678 551.30937119 131.88532709 557.28586228 131.92053413 563.26234245 C131.95357552 568.88054067 131.98196986 574.49874267 132.00670624 580.11698341 C132.01664991 582.18548363 132.02833242 584.25397628 132.04183006 586.32245636 C132.0599202 589.13346452 132.07191353 591.9444323 132.08229065 594.75547791 C132.08909444 595.585228 132.09589823 596.41497809 132.10290819 597.26987213 C132.10672243 599.18021894 132.05919813 601.09056682 132 603 C131.67 603.33 131.34 603.66 131 604 C87.77 604 44.54 604 0 604 C0 404.68 0 205.36 0 0 Z M131 118 C131 170.8 131 223.6 131 278 C157.915625 278.0928125 157.915625 278.0928125 185.375 278.1875 C193.8216626 278.22846802 193.8216626 278.22846802 202.43896484 278.27026367 C207.56001009 278.28030717 207.56001009 278.28030717 212.68106079 278.28633118 C214.93278796 278.29088806 217.18450858 278.30133348 219.43618774 278.31672668 C248.48659066 278.50510969 274.42961071 275.2793891 296 254 C307.65785717 242.15746391 313.63724365 227.32202953 316 211 C316.18369141 209.85337891 316.18369141 209.85337891 316.37109375 208.68359375 C319.26597679 185.84618307 315.22061346 162.20394404 301.125 143.75 C297.44283729 139.33419955 293.53664513 135.52656675 289 132 C288.35933594 131.48824219 287.71867188 130.97648438 287.05859375 130.44921875 C267.90760122 116.38577641 244.25794697 117.70892338 221.72265625 117.8046875 C219.39481706 117.80763407 217.06697653 117.80967072 214.73913574 117.81079102 C206.18023674 117.82120724 197.62136624 117.8491296 189.0625 117.875 C160.3215625 117.936875 160.3215625 117.936875 131 118 Z M343 390 C345.32742384 394.65484768 347.50621707 399.00836206 350.1796875 403.40625 C350.77152832 404.38489014 351.36336914 405.36353027 351.97314453 406.37182617 C352.60075684 407.40412354 353.22836914 408.4364209 353.875 409.5 C355.22516726 411.7349472 356.57409563 413.97064323 357.921875 416.20703125 C358.26320465 416.7733577 358.6045343 417.33968414 358.95620728 417.923172 C362.39986586 423.64660296 365.76907953 429.41232702 369.125 435.1875 C373.55470274 442.80892079 378.00699521 450.41570969 382.5 458 C387.75921529 466.87891159 392.97042629 475.78505728 398.15625 484.70703125 C401.29422871 490.10020033 404.46968497 495.46790525 407.68969727 500.8125 C409.740372 504.23602257 411.7209195 507.70053138 413.703125 511.1640625 C414.13109375 511.76992188 414.5590625 512.37578125 415 513 C415.66 513 416.32 513 417 513 C417.114646 513.72960937 417.22929199 514.45921875 417.34741211 515.2109375 C418.01881992 518.0804335 418.96920164 520.08376714 420.44140625 522.625 C420.93930664 523.4910083 421.43720703 524.3570166 421.95019531 525.24926758 C422.48225586 526.15700928 423.01431641 527.06475098 423.5625 528 C424.10100586 528.93030029 424.63951172 529.86060059 425.19433594 530.8190918 C429.34192851 537.95495433 433.5964825 545.01912961 438 552 C441.70016395 550.76661202 442.54703034 549.36179556 444.9375 546.3125 C448.49395407 541.85108111 452.13402299 537.49492649 455.875 533.1875 C459.86315734 528.57587756 463.70751528 523.88501718 467.4375 519.0625 C471.8895565 513.30831225 476.57715503 507.80074779 481.37036133 502.32885742 C485.03025002 498.1438614 488.54914169 493.87703382 491.98828125 489.5078125 C494.37093182 486.53759568 496.83861191 483.6440229 499.3125 480.75 C503.13564076 476.27150143 506.82842586 471.71498963 510.4375 467.0625 C514.69179762 461.5835381 519.11867999 456.28619311 523.65771484 451.04150391 C527.42724443 446.6839424 531.09043017 442.25030209 534.72265625 437.77734375 C537.28204217 434.65603433 539.88601545 431.57556761 542.5 428.5 C546.65644549 423.60655014 550.75619894 418.67171973 554.80859375 413.69140625 C556.31580357 411.84030542 557.82918427 409.99421742 559.34765625 408.15234375 C563.70432816 402.86469687 567.95766855 397.53244579 572 392 C571.67 391.34 571.34 390.68 571 390 C495.76 390 420.52 390 343 390 Z " fill="#39687B" transform="translate(166,72)"/>
<path d="M0 0 C0.18566245 12.49153617 0.32766064 24.98274215 0.41449738 37.47537899 C0.4561831 43.27680766 0.51269143 49.07728985 0.60351562 54.87817383 C0.6906762 60.48036002 0.73832387 66.08163805 0.75901794 71.68445015 C0.77375784 73.81792047 0.80254278 75.95134312 0.84584045 78.08442497 C1.21256426 96.9061405 1.21256426 96.9061405 -3.90112305 102.7043457 C-5.2357358 103.84117407 -6.59853028 104.94669445 -8 106 C-9.45219092 107.73782847 -10.89254836 109.48573143 -12.3125 111.25 C-15.6785546 115.39953283 -19.09916181 119.49443306 -22.5625 123.5625 C-25.7675178 127.33077724 -28.92688199 131.12246664 -32 135 C-35.52883403 139.45253701 -39.18229329 143.78685979 -42.86328125 148.11328125 C-45.78004513 151.54571609 -48.65693426 155.00592815 -51.5 158.5 C-54.7882374 162.53983452 -58.12731461 166.53083277 -61.5 170.5 C-67.13785486 177.13770996 -72.65364577 183.87058664 -78.13671875 190.63671875 C-82.87584684 196.46491038 -87.72154225 202.1873229 -92.62597656 207.87597656 C-96.16386443 211.99184739 -99.5802201 216.18658561 -102.9453125 220.4453125 C-105.39188509 223.48724876 -107.90836317 226.46416077 -110.4375 229.4375 C-114.50974464 234.2266207 -118.52481735 239.0561712 -122.49609375 243.9296875 C-129.88551657 252.99066463 -137.2981727 262.03232003 -144.875 270.9375 C-148.58937423 275.30520612 -152.22033985 279.72810194 -155.78515625 284.21875 C-162.57244455 292.74176459 -169.43317819 301.20687676 -176.5 309.5 C-180.66435446 314.38912411 -184.75777616 319.33204012 -188.8125 324.3125 C-189.33972656 324.95832031 -189.86695313 325.60414063 -190.41015625 326.26953125 C-193.58138271 330.17750729 -196.64493952 334.14949699 -199.63647461 338.19677734 C-202.60587911 342.12372839 -205.87055658 345.78091822 -209.21484375 349.390625 C-214.36535646 354.95610792 -219.16995505 360.6387944 -223.79882812 366.63989258 C-227.58971897 371.5382574 -231.56160154 376.25938123 -235.64819336 380.91357422 C-238.21687869 383.56975785 -238.21687869 383.56975785 -239 387 C-159.8 387.33 -80.6 387.66 1 388 C1 423.31 1 458.62 1 495 C0 496 0 496 -2.74030644 496.1241985 C-3.97933387 496.12381878 -5.21836131 496.12343906 -6.49493504 496.12304783 C-7.18494534 496.12420167 -7.87495565 496.12535552 -8.58587536 496.12654433 C-10.92711117 496.12921764 -13.26827992 496.12468301 -15.60951233 496.12025452 C-17.2932941 496.12069007 -18.9770758 496.12156469 -20.66085714 496.12284368 C-25.31044848 496.12509171 -29.96001701 496.12106318 -34.60960543 496.11606562 C-39.61508793 496.11176569 -44.62056903 496.11320722 -49.62605286 496.1139679 C-58.30592722 496.11449342 -66.9857941 496.11134363 -75.66566658 496.10573006 C-88.21545968 496.09761893 -100.76524914 496.09500024 -113.31504457 496.09374207 C-133.67398034 496.09155093 -154.03291211 496.0848892 -174.3918457 496.07543945 C-194.17407206 496.06626691 -213.95629734 496.05918531 -233.73852539 496.05493164 C-234.95695686 496.05466892 -236.17538834 496.05440619 -237.43074197 496.05413551 C-243.5429724 496.05283052 -249.65520284 496.0515668 -255.76743329 496.05032361 C-306.51162495 496.03994909 -357.25581228 496.02232912 -408 496 C-409.08500424 492.05239873 -409.19087729 488.24938997 -409.24047852 484.17724609 C-409.25997307 483.00077515 -409.25997307 483.00077515 -409.27986145 481.80053711 C-409.40653921 473.60540634 -409.46330797 465.40926819 -409.51489258 457.21337891 C-409.54161465 453.33128796 -409.59031922 449.45042859 -409.65844727 445.56884766 C-409.74069773 440.86971612 -409.78312202 436.17175517 -409.79795647 431.4719429 C-409.81015212 429.68818034 -409.83606389 427.90445321 -409.87640572 426.12110519 C-410.21299854 410.45512678 -410.21299854 410.45512678 -405.12841797 404.04125977 C-403.78318059 402.66331271 -402.40971285 401.31191135 -401 400 C-400.02684815 398.86914366 -399.06788926 397.72579036 -398.12890625 396.56640625 C-397.28199219 395.57511719 -396.43507813 394.58382813 -395.5625 393.5625 C-392.16679333 389.57419078 -388.8062058 385.56326187 -385.5 381.5 C-382.21174532 377.46014426 -378.87199879 373.46976751 -375.5 369.5 C-374.11820122 367.86786833 -372.73711484 366.2351378 -371.35644531 364.60205078 C-370.45644531 363.53909182 -369.55476652 362.47755188 -368.65136719 361.41748047 C-367.38589019 359.9298169 -366.13023286 358.43381727 -364.875 356.9375 C-363.78832031 355.65166016 -363.78832031 355.65166016 -362.6796875 354.33984375 C-360.88800119 352.16524358 -360.88800119 352.16524358 -360.5078125 349.81640625 C-360.25644531 348.91728516 -360.25644531 348.91728516 -360 348 C-358.67027988 347.32615534 -357.33608619 346.6611323 -356 346 C-354.15677904 344.05660399 -352.44476598 342.1269845 -350.75 340.0625 C-350.26764893 339.48564453 -349.78529785 338.90878906 -349.28833008 338.31445312 C-346.25744192 334.65064273 -343.4313484 330.88579686 -340.6875 327 C-337.81306252 322.95018525 -334.8568413 320.14844188 -331 317 C-328.75256407 314.4163335 -326.61830584 311.75701334 -324.48046875 309.08203125 C-321.91837823 305.89858335 -319.28240688 302.79102371 -316.625 299.6875 C-312.22541926 294.52977101 -308.01488395 289.2451163 -303.85522461 283.89282227 C-300.8686857 280.06346966 -297.76267592 276.38505573 -294.5234375 272.765625 C-293.02127607 271.02465842 -291.66415474 269.23450189 -290.3125 267.375 C-286.97542532 262.83336628 -283.28515716 258.61595773 -279.60375977 254.35400391 C-273.63048528 247.43251719 -267.86302239 240.3547408 -262.1875 233.1875 C-258.38425445 228.41256696 -254.41240358 223.7952773 -250.42480469 219.17480469 C-246.86513675 215.03947345 -243.42835931 210.82571644 -240.046875 206.54296875 C-237.6490597 203.56400355 -235.17169562 200.65674266 -232.6875 197.75 C-228.86441384 193.27145212 -225.17157653 188.71499272 -221.5625 184.0625 C-217.30820238 178.5835381 -212.88132001 173.28619311 -208.34228516 168.04150391 C-204.57275557 163.6839424 -200.90956983 159.25030209 -197.27734375 154.77734375 C-194.71795783 151.65603433 -192.11398455 148.57556761 -189.5 145.5 C-185.34236985 140.60515543 -181.24185671 135.66856682 -177.1875 130.6875 C-174.925915 127.90898128 -172.65031774 125.14227833 -170.375 122.375 C-166.93850123 118.19222129 -163.63246275 113.93176414 -160.41015625 109.58203125 C-159.94480469 109.05996094 -159.47945312 108.53789062 -159 108 C-158.34 108 -157.68 108 -157 108 C-157 107.34 -157 106.68 -157 106 C-158.78878523 106.02074034 -158.78878523 106.02074034 -160.61370754 106.04189968 C-188.9382966 106.36694911 -217.26283719 106.61419618 -245.58888101 106.76597994 C-249.0772423 106.78473996 -252.56559966 106.80415485 -256.05395508 106.82397461 C-256.74840753 106.82790927 -257.44285997 106.83184392 -258.15835644 106.83589781 C-269.39494534 106.90112338 -280.63038011 107.01936342 -291.8662849 107.15729194 C-303.40035596 107.29769698 -314.93361616 107.37978526 -326.46852499 107.41132742 C-332.94609428 107.43088195 -339.42104866 107.47681107 -345.89777946 107.58595085 C-351.9963232 107.6878838 -358.09117984 107.71915596 -364.19049454 107.69661522 C-366.42676032 107.70073737 -368.66315104 107.73052236 -370.89867973 107.78808212 C-387.43795073 108.19299154 -387.43795073 108.19299154 -391.81536794 104.44613194 C-395.1637356 100.37256154 -397.19546697 95.92265998 -399 91 C-396.28707456 88.9195796 -393.78187614 87.3175007 -390.6484375 85.94140625 C-373.86893558 78.37955957 -358.84288994 69.20442952 -345 57 C-343.52466797 55.70642578 -343.52466797 55.70642578 -342.01953125 54.38671875 C-332.62259528 46.02974219 -324.29786608 37.07871769 -316.9375 26.875 C-316.47923828 26.24964355 -316.02097656 25.62428711 -315.54882812 24.97998047 C-312.01315584 19.94721059 -309.15200098 14.62649538 -306.30297852 9.18798828 C-305.68042553 8.00554283 -305.68042553 8.00554283 -305.04529572 6.79920959 C-304.02837331 4.86708905 -303.01333095 2.93400584 -302 1 C-263.67140072 0.8725865 -225.34280139 0.74519038 -187.01420197 0.61781773 C-182.49408712 0.60279658 -177.97397227 0.58777529 -173.45385742 0.57275391 C-172.55394469 0.56976329 -171.65403195 0.56677268 -170.72684913 0.56369144 C-156.13580772 0.51520174 -141.54476635 0.46670032 -126.95372499 0.41819459 C-111.99348603 0.36846179 -97.03324704 0.3187415 -82.073008 0.26903296 C-72.83406822 0.23833423 -63.59512847 0.20762562 -54.35618877 0.17690456 C-48.02959062 0.15586846 -41.70299244 0.13484448 -35.37639422 0.11383021 C-31.72066428 0.10168706 -28.06493436 0.0895384 -24.40920448 0.07737541 C-20.45526256 0.06422039 -16.50132056 0.05109076 -12.54737854 0.03796387 C-11.37911594 0.03407292 -10.21085335 0.03018197 -9.00718886 0.02617311 C-7.95669574 0.02268972 -6.90620262 0.01920632 -5.82387638 0.01561737 C-4.90988955 0.01257961 -3.99590271 0.00954185 -3.05421931 0.00641203 C-1 0 -1 0 0 0 Z " fill="#0A1013" transform="translate(897,355)"/>
<path d="M0 0 C0 32.01 0 64.02 0 97 C-0.99 96.67 -1.98 96.34 -3 96 C-2.67 65.31 -2.34 34.62 -2 3 C-39.89546986 2.99525408 -77.79065204 3.01185737 -115.68605523 3.07579029 C-120.15723958 3.08330658 -124.62842433 3.09056202 -129.09960938 3.09765625 C-129.98976334 3.099073 -130.8799173 3.10048975 -131.79704562 3.10194944 C-146.22118355 3.12428418 -160.64524999 3.12547511 -175.0694004 3.11888863 C-189.86360745 3.11260245 -204.65766381 3.1289534 -219.45182538 3.16643608 C-228.58491925 3.18885877 -237.7176702 3.19350279 -246.85077551 3.17559664 C-253.108828 3.16501661 -259.36659795 3.17637191 -265.62459227 3.20516153 C-269.23838859 3.22113305 -272.85151323 3.22725561 -276.46530533 3.20739174 C-280.37915872 3.18613058 -284.29193155 3.21097025 -288.20574951 3.24050903 C-289.35360074 3.22692293 -290.50145196 3.21333683 -291.68408656 3.19933903 C-297.04284161 3.06846885 -297.04284161 3.06846885 -301.6112771 5.38631988 C-302.90588973 7.18300151 -302.90588973 7.18300151 -304 10 C-304.66 9.67 -305.32 9.34 -306 9 C-304.68 6.36 -303.36 3.72 -302 1 C-263.67140072 0.8725865 -225.34280139 0.74519038 -187.01420197 0.61781773 C-182.49408712 0.60279658 -177.97397227 0.58777529 -173.45385742 0.57275391 C-172.55394469 0.56976329 -171.65403195 0.56677268 -170.72684913 0.56369144 C-156.13580772 0.51520174 -141.54476635 0.46670032 -126.95372499 0.41819459 C-111.99348603 0.36846179 -97.03324704 0.3187415 -82.073008 0.26903296 C-72.83406822 0.23833423 -63.59512847 0.20762562 -54.35618877 0.17690456 C-48.02959062 0.15586846 -41.70299244 0.13484448 -35.37639422 0.11383021 C-31.72066428 0.10168706 -28.06493436 0.0895384 -24.40920448 0.07737541 C-20.45526256 0.06422039 -16.50132056 0.05109076 -12.54737854 0.03796387 C-11.37911594 0.03407292 -10.21085335 0.03018197 -9.00718886 0.02617311 C-7.95669574 0.02268972 -6.90620262 0.01920632 -5.82387638 0.01561737 C-4.90988955 0.01257961 -3.99590271 0.00954185 -3.05421931 0.00641203 C-1 0 -1 0 0 0 Z " fill="#030405" transform="translate(897,355)"/>
<path d="M0 0 C2.74453257 1.37226628 3.01657374 2.84056401 4.3125 5.625 C7.28479579 11.72753968 10.56833326 17.6083681 13.9375 23.5 C19.26918216 32.84374023 24.39925341 42.28403987 29.44747925 51.78277588 C34.35926139 61.01803453 39.44096917 70.14362838 44.62866211 79.2265625 C48.14571302 85.4113592 51.45206375 91.65097607 54.53515625 98.0625 C55.887254 100.77390668 57.34675536 103.39584765 58.86401367 106.01757812 C61.18045272 110.06002065 63.39447149 114.15973774 65.625 118.25 C66.14481445 119.20277832 66.66462891 120.15555664 67.20019531 121.13720703 C72.2272122 130.37584215 77.13345617 139.67604655 82 149 C81.34 149.33 80.68 149.66 80 150 C79.68248779 149.37432129 79.36497559 148.74864258 79.0378418 148.10400391 C77.59575936 145.27349302 76.14180489 142.44924909 74.6875 139.625 C74.18798828 138.64015625 73.68847656 137.6553125 73.17382812 136.640625 C72.68720703 135.69960938 72.20058594 134.75859375 71.69921875 133.7890625 C71.25408936 132.91975098 70.80895996 132.05043945 70.3503418 131.15478516 C69.0335403 128.72589376 69.0335403 128.72589376 66 127 C66 126.01 66 125.02 66 124 C65.18623968 122.23219464 64.29261575 120.50071679 63.359375 118.79296875 C62.78952881 117.74278564 62.21968262 116.69260254 61.63256836 115.6105957 C61.0113208 114.48097412 60.39007324 113.35135254 59.75 112.1875 C59.10696352 111.00835082 58.46447288 109.82890382 57.82250977 108.64916992 C56.51341882 106.24572289 55.20080462 103.84425299 53.88525391 101.44433594 C52.20021935 98.36579831 50.52501165 95.28226985 48.85546875 92.1953125 C44.39927271 83.96769266 39.88826494 75.77833034 35.24731445 67.65332031 C29.22004787 57.09902777 23.52415747 46.41132968 17.97167969 35.59985352 C13.19073542 26.30724741 8.28170724 17.08057215 2.87207031 8.13476562 C0 3.3169369 0 3.3169369 0 0 Z " fill="#2A4C5C" transform="translate(367,462)"/>
<path d="M0 0 C2.70715008 2.41548749 4.21429696 4.97261957 5.8984375 8.171875 C6.45418457 9.21811035 7.00993164 10.2643457 7.58251953 11.34228516 C8.17403809 12.46683105 8.76555664 13.59137695 9.375 14.75 C10.62817364 17.10788882 11.88275031 19.46493743 13.140625 21.8203125 C13.45963776 22.4182663 13.77865051 23.01622009 14.10733032 23.6322937 C17.85719917 30.6381831 21.78567616 37.54199707 25.73583984 44.43652344 C26.23809082 45.31598633 26.7403418 46.19544922 27.2578125 47.1015625 C27.6923877 47.85775879 28.12696289 48.61395508 28.57470703 49.39306641 C30.47979999 52.87757867 32.22398171 56.44796341 34 60 C60.07 60.33 86.14 60.66 113 61 C113 61.33 113 61.66 113 62 C86.27 62 59.54 62 32 62 C28.04 54.41 24.08 46.82 20 39 C16.58069267 32.06550371 16.58069267 32.06550371 12 26 C11.33700904 24.83593552 10.71614773 23.64745538 10.125 22.4453125 C9.77953125 21.74792969 9.4340625 21.05054688 9.078125 20.33203125 C8.72234375 19.60371094 8.3665625 18.87539063 8 18.125 C7.64421875 17.40441406 7.2884375 16.68382812 6.921875 15.94140625 C6.25597524 14.59221383 5.59172572 13.24220472 4.9296875 11.89111328 C4.46949219 10.95501221 4.46949219 10.95501221 4 10 C3.67257812 9.30245605 3.34515625 8.60491211 3.0078125 7.88623047 C2.02988462 5.83625661 2.02988462 5.83625661 0 4 C0 2.68 0 1.36 0 0 Z " fill="#274655" transform="translate(449,613)"/>
<path d="M0 0 C3.24435639 2.9821547 5.35732388 6.00810002 7.53125 9.83203125 C8.17707031 10.96060547 8.82289063 12.08917969 9.48828125 13.25195312 C10.15900957 14.43871427 10.82958137 15.62556388 11.5 16.8125 C12.16998221 17.98796709 12.84055022 19.1631005 13.51171875 20.33789062 C18.07542069 28.34031009 18.07542069 28.34031009 20.2890625 32.31396484 C21.70262457 34.84070704 22.94058783 36.94058783 25 39 C25.91327769 40.68817998 26.78436931 42.39949491 27.625 44.125 C28.07101562 45.03507813 28.51703125 45.94515625 28.9765625 46.8828125 C29.31429687 47.58148437 29.65203125 48.28015625 30 49 C30.99 48.505 30.99 48.505 32 48 C32.21269531 48.94359375 32.42539062 49.8871875 32.64453125 50.859375 C34.1443104 56.09085704 36.94913561 60.58344563 39.6875 65.25 C40.22334717 66.1778833 40.75919434 67.1057666 41.3112793 68.06176758 C44.69152753 73.880445 48.18756023 79.58181879 51.98828125 85.13671875 C52.32214844 85.75160156 52.65601563 86.36648438 53 87 C52.67 87.66 52.34 88.32 52 89 C47.77652164 83.27190748 44.00503986 77.41317121 40.52954102 71.20361328 C37.12203101 65.14424344 33.53115635 59.20038574 29.9375 53.25 C23.88736411 43.22107641 17.98382997 33.11937139 12.18725586 22.94238281 C8.73999562 16.91460755 5.14697962 11.04552641 1.28515625 5.27294922 C0 3 0 3 0 0 Z " fill="#2B4C5B" transform="translate(551,535)"/>
<path d="M0 0 C5.99341355 0.53494931 10.85381408 3.03417663 16.1875 5.625 C17.58609253 6.29571533 17.58609253 6.29571533 19.01293945 6.97998047 C25.00941588 9.90108602 30.64779905 13.02096457 36.13671875 16.8203125 C37.91407807 18.17830855 37.91407807 18.17830855 40 18 C41.67838269 19.6548677 43.34270958 21.32400954 45 23 C47.08735752 24.63834847 49.17949324 26.23736623 51.3125 27.8125 C56.64681982 31.82213924 61.46016258 36.08984352 66 41 C61.95579412 41 61.29042002 39.62077338 58.4375 36.8125 C41.51227285 20.92966469 21.20605599 10.12077648 0 1 C0 0.67 0 0.34 0 0 Z " fill="#2F5464" transform="translate(496,86)"/>
<path d="M0 0 C10.72099008 0.48731773 20.17065618 7.11188877 28 14 C29.10794922 14.94939453 29.10794922 14.94939453 30.23828125 15.91796875 C40.26192731 25.14526296 47.33569724 37.62259174 50 51 C50.05219963 52.66584903 50.07014536 54.3348101 50 56 C47.29001839 53.29001839 46.81370204 50.21691577 45.8125 46.625 C40.67398297 29.38971844 30.18698837 16.2449472 14.390625 7.56640625 C9.68494799 5.16365905 4.88228279 3.01659507 0 1 C0 0.67 0 0.34 0 0 Z " fill="#2D5060" transform="translate(432,192)"/>
<path d="M0 0 C1.65 0 3.3 0 5 0 C3.25 3.875 3.25 3.875 1 5 C-1.50355689 5.06359299 -3.97679986 5.0660112 -6.47900391 5.02172852 C-7.6352401 5.0073172 -7.6352401 5.0073172 -8.81483459 4.99261475 C-11.36883523 4.95956993 -13.92266772 4.91925858 -16.4765625 4.87890625 C-18.24489749 4.85461048 -20.01323874 4.83076666 -21.78158569 4.80735779 C-26.44070559 4.74446275 -31.0997149 4.67541148 -35.75872803 4.60510254 C-40.5109757 4.53446799 -45.2633019 4.46962185 -50.015625 4.40429688 C-59.34383631 4.27521469 -68.67194107 4.13963247 -78 4 C-78 3.67 -78 3.34 -78 3 C-52.59 2.67 -27.18 2.34 -1 2 C-0.67 1.34 -0.34 0.68 0 0 Z " fill="#446F7E" transform="translate(560,672)"/>
<path d="M0 0 C0.33 0 0.66 0 1 0 C1.33 4.29 1.66 8.58 2 13 C2.33 13 2.66 13 3 13 C3 20.92 3 28.84 3 37 C2.01 37.495 2.01 37.495 1 38 C0.20651375 33.12651177 -0.11813526 28.47059816 -0.09765625 23.53515625 C-0.0962413 22.85698349 -0.09482635 22.17881073 -0.09336853 21.48008728 C-0.08782745 19.34084422 -0.07528653 17.20171075 -0.0625 15.0625 C-0.05747736 13.60091298 -0.0529158 12.13932431 -0.04882812 10.67773438 C-0.03787745 7.11845474 -0.02065445 3.55923809 0 0 Z " fill="#111518" transform="translate(488,793)"/>
<path d="M0 0 C10.0040384 4.05085224 17.85175543 19.33934985 24 28 C24.6084375 28.8559375 25.216875 29.711875 25.84375 30.59375 C29.09902724 35.44049611 29.09902724 35.44049611 28.609375 38.20703125 C28.40828125 38.79871094 28.2071875 39.39039063 28 40 C27.46632813 39.06800781 26.93265625 38.13601562 26.3828125 37.17578125 C19.29849967 24.98271283 11.33006813 14.19320351 1.6171875 3.92578125 C0 2 0 2 0 0 Z " fill="#2E5160" transform="translate(562,128)"/>
<path d="M0 0 C0.66 0.33 1.32 0.66 2 1 C-6.86587712 11.92913424 -17.10239213 20.40579107 -31 24 C-31 23.34 -31 22.68 -31 22 C-29.98421875 21.55011719 -28.9684375 21.10023438 -27.921875 20.63671875 C-17.97676503 16.05384723 -10.65101412 10.8540261 -3 3 C-2 2 -1 1 0 0 Z " fill="#2F5364" transform="translate(466,321)"/>
<path d="M0 0 C0.66 0.33 1.32 0.66 2 1 C-6.44891544 9.23023763 -16.21221405 17.03978686 -27 22 C-25.61282808 17.83848425 -22.67733668 16.60400174 -19.125 14.375 C-12.33922667 10.0009151 -6.1255808 5.27232942 0 0 Z " fill="#040608" transform="translate(552,412)"/>
<path d="M0 0 C0.66 0.33 1.32 0.66 2 1 C-12.11254929 23.49687562 -12.11254929 23.49687562 -18 26 C-17.21625 24.989375 -16.4325 23.97875 -15.625 22.9375 C-10.78518077 16.49984571 -6.43254543 9.72056799 -2 3 C-1.34 2.01 -0.68 1.02 0 0 Z " fill="#030506" transform="translate(589,368)"/>
<path d="M0 0 C4.39948388 3.76948619 6.95531606 8.60980014 9.8125 13.5625 C10.32748047 14.42552734 10.84246094 15.28855469 11.37304688 16.17773438 C11.85451172 17.00724609 12.33597656 17.83675781 12.83203125 18.69140625 C13.27264893 19.44623291 13.7132666 20.20105957 14.16723633 20.97875977 C15 23 15 23 14 26 C11.84589124 22.42158006 9.70317435 18.83647012 7.5625 15.25 C6.95083984 14.23421875 6.33917969 13.2184375 5.70898438 12.171875 C4.8340332 10.70234375 4.8340332 10.70234375 3.94140625 9.203125 C3.13231812 7.85202637 3.13231812 7.85202637 2.30688477 6.47363281 C1.14178019 4.26835735 0.45979319 2.43566122 0 0 Z " fill="#2B4C5B" transform="translate(535,508)"/>
<path d="M0 0 C0.99 0 1.98 0 3 0 C3 2 3 2 1 4.0625 C0.55269531 4.49046875 0.10539063 4.9184375 -0.35546875 5.359375 C-3.74480163 8.74065721 -6.84238899 12.40361426 -10 16 C-10.66 15.67 -11.32 15.34 -12 15 C-11.21753906 14.08476563 -10.43507813 13.16953125 -9.62890625 12.2265625 C-8.60666469 11.02613205 -7.58453507 9.82560626 -6.5625 8.625 C-6.04623047 8.02171875 -5.52996094 7.4184375 -4.99804688 6.796875 C-2.21367706 3.59551296 -2.21367706 3.59551296 0 0 Z " fill="#040608" transform="translate(605,624)"/>
<path d="M0 0 C0.33 1.32 0.66 2.64 1 4 C0.01 4.33 -0.98 4.66 -2 5 C-2.433125 6.2065625 -2.433125 6.2065625 -2.875 7.4375 C-4 10 -4 10 -6.625 11.3125 C-7.40875 11.539375 -8.1925 11.76625 -9 12 C-8.2575 11.1028125 -8.2575 11.1028125 -7.5 10.1875 C-5.71723582 8.02970006 -5.71723582 8.02970006 -6 5 C-5.38125 4.731875 -4.7625 4.46375 -4.125 4.1875 C-1.7004767 3.04443152 -1.7004767 3.04443152 0 0 Z " fill="#121A1E" transform="translate(543,698)"/>
<path d="M0 0 C1.58226891 0.35889212 3.16562863 0.71300632 4.75 1.0625 C5.54921875 1.23910156 6.3484375 1.41570312 7.171875 1.59765625 C7.77515625 1.73042969 8.3784375 1.86320312 9 2 C9 2.33 9 2.66 9 3 C3.84828377 3.09038099 -0.91913204 2.84681133 -6 2 C-6 1.34 -6 0.68 -6 0 C-3.4450875 -1.27745625 -2.69398514 -0.78009282 0 0 Z " fill="#325969" transform="translate(448,73)"/>
<path d="M0 0 C0 4.13781054 -1.71509607 5.20919996 -4.5 8.1875 C-5.3353125 9.08855469 -6.170625 9.98960937 -7.03125 10.91796875 C-7.6809375 11.60503906 -8.330625 12.29210937 -9 13 C-9 8.86218946 -7.28490393 7.79080004 -4.5 4.8125 C-3.6646875 3.91144531 -2.829375 3.01039063 -1.96875 2.08203125 C-0.99421875 1.05142578 -0.99421875 1.05142578 0 0 Z " fill="#020406" transform="translate(572,665)"/>
<path d="M0 0 C0.33 0.99 0.66 1.98 1 3 C-0.43359375 5.26171875 -0.43359375 5.26171875 -2.4375 7.6875 C-3.09621094 8.49574219 -3.75492188 9.30398438 -4.43359375 10.13671875 C-5.20896484 11.05904297 -5.20896484 11.05904297 -6 12 C-6.99 11.67 -7.98 11.34 -9 11 C-6.03 7.37 -3.06 3.74 0 0 Z " fill="#070A0C" transform="translate(715,667)"/>
<path d="M0 0 C0.66 0 1.32 0 2 0 C2.103125 0.886875 2.20625 1.77375 2.3125 2.6875 C3.01342207 6.06466995 4.22428956 8.09429201 6 11 C5.67 11.66 5.34 12.32 5 13 C2.69 9.37 0.38 5.74 -2 2 C-1.34 1.34 -0.68 0.68 0 0 Z " fill="#030506" transform="translate(500,444)"/>
<path d="M0 0 C4.62 0 9.24 0 14 0 C14 0.33 14 0.66 14 1 C9.38 1 4.76 1 0 1 C0 0.67 0 0.34 0 0 Z " fill="#2E3A40" transform="translate(597,463)"/>
<path d="M0 0 C2.31 0 4.62 0 7 0 C7 0.33 7 0.66 7 1 C4.69 1 2.38 1 0 1 C0 0.67 0 0.34 0 0 Z " fill="#21292D" transform="translate(719,463)"/>
<path d="M0 0 C0.66 0.33 1.32 0.66 2 1 C1.01 1.66 0.02 2.32 -1 3 C-0.67 2.01 -0.34 1.02 0 0 Z " fill="#2C3A41" transform="translate(529,712)"/>
<path d="M0 0 C0.66 0 1.32 0 2 0 C1.67 0.99 1.34 1.98 1 3 C0.67 2.01 0.34 1.02 0 0 Z " fill="#416979" transform="translate(526,488)"/>
<path d="M0 0 C4 1 4 1 4 1 Z " fill="#406674" transform="translate(528,677)"/>
<path d="M0 0 C0.99 0.495 0.99 0.495 2 1 C1.67 1.66 1.34 2.32 1 3 C0.67 2.01 0.34 1.02 0 0 Z " fill="#467283" transform="translate(420,565)"/>
<path d="M0 0 C4 1 4 1 4 1 Z " fill="#222A2E" transform="translate(714,463)"/>
<path d="M0 0 C4 1 4 1 4 1 Z " fill="#232D31" transform="translate(693,463)"/>
<path d="M0 0 C4 1 4 1 4 1 Z " fill="#262E32" transform="translate(685,463)"/>
<path d="M0 0 C4 1 4 1 4 1 Z " fill="#2B3338" transform="translate(645,463)"/>
<path d="M0 0 C4 1 4 1 4 1 Z " fill="#2B353B" transform="translate(631,463)"/>
<path d="M0 0 C0.66 0 1.32 0 2 0 C2 0.66 2 1.32 2 2 C1.34 2 0.68 2 0 2 C0 1.34 0 0.68 0 0 Z " fill="#385763" transform="translate(598,353)"/>
<path d="M0 0 C0.66 0 1.32 0 2 0 C1.67 0.66 1.34 1.32 1 2 C0.67 1.34 0.34 0.68 0 0 Z " fill="#253237" transform="translate(499,745)"/>
<path d="M0 0 C0.33 0.66 0.66 1.32 1 2 C0.34 1.67 -0.32 1.34 -1 1 C-0.67 0.67 -0.34 0.34 0 0 Z " fill="#1E2628" transform="translate(703,686)"/>
<path d="M0 0 C3 1 3 1 3 1 Z " fill="#3F6270" transform="translate(536,677)"/>
<path d="M0 0 C0.99 0.495 0.99 0.495 2 1 C1.01 1.495 1.01 1.495 0 2 C0 1.34 0 0.68 0 0 Z " fill="#467181" transform="translate(464,648)"/>
<path d="" fill="#436978" transform="translate(0,0)"/>
<path d="M0 0 C0.33 0.66 0.66 1.32 1 2 C0.34 1.67 -0.32 1.34 -1 1 C-0.67 0.67 -0.34 0.34 0 0 Z " fill="#457183" transform="translate(409,544)"/>
<path d="M0 0 C0.66 0.66 1.32 1.32 2 2 C1.34 2 0.68 2 0 2 C0 1.34 0 0.68 0 0 Z " fill="#253035" transform="translate(672,539)"/>
<path d="M0 0 C0.99 0.495 0.99 0.495 2 1 C1.01 1.495 1.01 1.495 0 2 C0 1.34 0 0.68 0 0 Z " fill="#212A2E" transform="translate(712,491)"/>
<path d="M0 0 C3 1 3 1 3 1 Z " fill="#222A2F" transform="translate(703,463)"/>
<path d="M0 0 C3 1 3 1 3 1 Z " fill="#2A3539" transform="translate(640,463)"/>
<path d="M0 0 C3 1 3 1 3 1 Z " fill="#2D383F" transform="translate(616,463)"/>
<path d="M0 0 C3 1 3 1 3 1 Z " fill="#303D45" transform="translate(583,463)"/>
<path d="M0 0 C0.99 0.495 0.99 0.495 2 1 C1.01 1.495 1.01 1.495 0 2 C0 1.34 0 0.68 0 0 Z " fill="#375663" transform="translate(511,463)"/>
<path d="" fill="#437080" transform="translate(0,0)"/>
<path d="M0 0 C3 1 3 1 3 1 Z " fill="#487483" transform="translate(485,80)"/>
<path d="M0 0 C2 1 2 1 2 1 Z " fill="#1A1F1F" transform="translate(681,852)"/>
<path d="M0 0 C2 1 2 1 2 1 Z " fill="#1B1F21" transform="translate(582,852)"/>
<path d="M0 0 C2 1 2 1 2 1 Z " fill="#1B1F22" transform="translate(489,852)"/>
<path d="" fill="#457082" transform="translate(0,0)"/>
<path d="" fill="#33444F" transform="translate(0,0)"/>
<path d="" fill="#2C3942" transform="translate(0,0)"/>
<path d="" fill="#2F4147" transform="translate(0,0)"/>
<path d="" fill="#457285" transform="translate(0,0)"/>
<path d="" fill="#263135" transform="translate(0,0)"/>
<path d="" fill="#457485" transform="translate(0,0)"/>
<path d="M0 0 C2 1 2 1 2 1 Z " fill="#1D2229" transform="translate(846,513)"/>
<path d="" fill="#202A2C" transform="translate(0,0)"/>
<path d="" fill="#487485" transform="translate(0,0)"/>
<path d="" fill="#1F292C" transform="translate(0,0)"/>
<path d="M0 0 C2 1 2 1 2 1 Z " fill="#21282D" transform="translate(727,463)"/>
<path d="M0 0 C2 1 2 1 2 1 Z " fill="#212A2E" transform="translate(711,463)"/>
<path d="M0 0 C2 1 2 1 2 1 Z " fill="#283137" transform="translate(663,463)"/>
<path d="M0 0 C2 1 2 1 2 1 Z " fill="#2D3940" transform="translate(613,463)"/>
<path d="M0 0 C2 1 2 1 2 1 Z " fill="#2F3B43" transform="translate(592,463)"/>
<path d="M0 0 C2 1 2 1 2 1 Z " fill="#313C44" transform="translate(588,463)"/>
<path d="M0 0 C2 1 2 1 2 1 Z " fill="#313F46" transform="translate(576,463)"/>
<path d="M0 0 C2 1 2 1 2 1 Z " fill="#324149" transform="translate(552,463)"/>
<path d="" fill="#477385" transform="translate(0,0)"/>
<path d="M0 0 C2 1 2 1 2 1 Z " fill="#497485" transform="translate(464,217)"/>
<path d="M0 0 C2 1 2 1 2 1 Z " fill="#49768A" transform="translate(373,191)"/>
<path d="M0 0 C2 1 2 1 2 1 Z " fill="#487589" transform="translate(357,191)"/>
<path d="M0 0 C2 1 2 1 2 1 Z " fill="#487589" transform="translate(317,191)"/>
<path d="" fill="#426E7E" transform="translate(0,0)"/>
<path d="" fill="#456D7E" transform="translate(0,0)"/>
<path d="" fill="#416E7F" transform="translate(0,0)"/>
<path d="" fill="#446E80" transform="translate(0,0)"/>
<path d="M0 0 C2 1 2 1 2 1 Z " fill="#447082" transform="translate(524,97)"/>
<path d="M0 0 C2 1 2 1 2 1 Z " fill="#437083" transform="translate(507,88)"/>
<path d="" fill="#161919" transform="translate(0,0)"/>
<path d="" fill="#1B1E21" transform="translate(0,0)"/>
<path d="" fill="#1B2121" transform="translate(0,0)"/>
<path d="" fill="#1B2023" transform="translate(0,0)"/>
<path d="" fill="#1B2222" transform="translate(0,0)"/>
<path d="" fill="#192021" transform="translate(0,0)"/>
<path d="" fill="#1B2022" transform="translate(0,0)"/>
<path d="" fill="#192022" transform="translate(0,0)"/>
<path d="" fill="#1B1F23" transform="translate(0,0)"/>
<path d="" fill="#1C1F22" transform="translate(0,0)"/>
<path d="" fill="#1C2122" transform="translate(0,0)"/>
<path d="" fill="#192022" transform="translate(0,0)"/>
<path d="" fill="#1C2122" transform="translate(0,0)"/>
<path d="" fill="#1B2022" transform="translate(0,0)"/>
<path d="" fill="#273236" transform="translate(0,0)"/>
<path d="" fill="#263032" transform="translate(0,0)"/>
<path d="" fill="#253136" transform="translate(0,0)"/>
<path d="" fill="#293337" transform="translate(0,0)"/>
<path d="" fill="#263136" transform="translate(0,0)"/>
<path d="" fill="#283638" transform="translate(0,0)"/>
<path d="" fill="#273439" transform="translate(0,0)"/>
<path d="" fill="#29353A" transform="translate(0,0)"/>
<path d="" fill="#27353D" transform="translate(0,0)"/>
<path d="" fill="#222729" transform="translate(0,0)"/>
<path d="" fill="#29383E" transform="translate(0,0)"/>
<path d="" fill="#1F2529" transform="translate(0,0)"/>
<path d="" fill="#2C3A40" transform="translate(0,0)"/>
<path d="" fill="#202628" transform="translate(0,0)"/>
<path d="" fill="#304145" transform="translate(0,0)"/>
<path d="" fill="#314248" transform="translate(0,0)"/>
<path d="" fill="#2E3F47" transform="translate(0,0)"/>
<path d="" fill="#314348" transform="translate(0,0)"/>
<path d="" fill="#34474E" transform="translate(0,0)"/>
<path d="" fill="#1F2327" transform="translate(0,0)"/>
<path d="" fill="#334850" transform="translate(0,0)"/>
<path d="" fill="#21272A" transform="translate(0,0)"/>
<path d="" fill="#3E5E6B" transform="translate(0,0)"/>
<path d="" fill="#3E606C" transform="translate(0,0)"/>
<path d="" fill="#3F616F" transform="translate(0,0)"/>
<path d="" fill="#446B79" transform="translate(0,0)"/>
<path d="" fill="#456C79" transform="translate(0,0)"/>
<path d="" fill="#466D7C" transform="translate(0,0)"/>
<path d="" fill="#456E7B" transform="translate(0,0)"/>
<path d="" fill="#456C7B" transform="translate(0,0)"/>
<path d="" fill="#477180" transform="translate(0,0)"/>
<path d="" fill="#497282" transform="translate(0,0)"/>
<path d="" fill="#497280" transform="translate(0,0)"/>
<path d="" fill="#487080" transform="translate(0,0)"/>
<path d="" fill="#467180" transform="translate(0,0)"/>
<path d="" fill="#47707F" transform="translate(0,0)"/>
<path d="" fill="#466F7E" transform="translate(0,0)"/>
<path d="" fill="#446F7F" transform="translate(0,0)"/>
<path d="" fill="#456C7E" transform="translate(0,0)"/>
<path d="" fill="#476F81" transform="translate(0,0)"/>
<path d="" fill="#47727F" transform="translate(0,0)"/>
<path d="" fill="#446F7E" transform="translate(0,0)"/>
<path d="" fill="#466D7D" transform="translate(0,0)"/>
<path d="" fill="#1E2528" transform="translate(0,0)"/>
<path d="" fill="#1E2328" transform="translate(0,0)"/>
<path d="" fill="#457284" transform="translate(0,0)"/>
<path d="" fill="#477182" transform="translate(0,0)"/>
<path d="" fill="#457184" transform="translate(0,0)"/>
<path d="" fill="#457082" transform="translate(0,0)"/>
<path d="" fill="#45727F" transform="translate(0,0)"/>
<path d="" fill="#36505D" transform="translate(0,0)"/>
<path d="" fill="#364F5D" transform="translate(0,0)"/>
<path d="" fill="#303F46" transform="translate(0,0)"/>
<path d="" fill="#2E3E46" transform="translate(0,0)"/>
<path d="" fill="#20262D" transform="translate(0,0)"/>
<path d="" fill="#456F7F" transform="translate(0,0)"/>
<path d="" fill="#457081" transform="translate(0,0)"/>
<path d="" fill="#2D3C43" transform="translate(0,0)"/>
<path d="" fill="#2F4049" transform="translate(0,0)"/>
<path d="" fill="#426E7D" transform="translate(0,0)"/>
<path d="" fill="#21252A" transform="translate(0,0)"/>
<path d="" fill="#303D45" transform="translate(0,0)"/>
<path d="" fill="#466C7C" transform="translate(0,0)"/>
<path d="" fill="#2B3941" transform="translate(0,0)"/>
<path d="" fill="#2F3B41" transform="translate(0,0)"/>
<path d="" fill="#2E3C41" transform="translate(0,0)"/>
<path d="" fill="#1D2428" transform="translate(0,0)"/>
<path d="" fill="#457383" transform="translate(0,0)"/>
<path d="" fill="#456C7E" transform="translate(0,0)"/>
<path d="" fill="#29373D" transform="translate(0,0)"/>
<path d="" fill="#466E7C" transform="translate(0,0)"/>
<path d="" fill="#477587" transform="translate(0,0)"/>
<path d="" fill="#426E7F" transform="translate(0,0)"/>
<path d="" fill="#2D333C" transform="translate(0,0)"/>
<path d="" fill="#1E2429" transform="translate(0,0)"/>
<path d="" fill="#487485" transform="translate(0,0)"/>
<path d="" fill="#2A343C" transform="translate(0,0)"/>
<path d="" fill="#1E2425" transform="translate(0,0)"/>
<path d="" fill="#293339" transform="translate(0,0)"/>
<path d="" fill="#283538" transform="translate(0,0)"/>
<path d="" fill="#22272A" transform="translate(0,0)"/>
<path d="" fill="#467586" transform="translate(0,0)"/>
<path d="" fill="#477483" transform="translate(0,0)"/>
<path d="" fill="#467385" transform="translate(0,0)"/>
<path d="" fill="#253238" transform="translate(0,0)"/>
<path d="" fill="#283137" transform="translate(0,0)"/>
<path d="" fill="#456F7F" transform="translate(0,0)"/>
<path d="" fill="#253137" transform="translate(0,0)"/>
<path d="" fill="#457281" transform="translate(0,0)"/>
<path d="" fill="#242F37" transform="translate(0,0)"/>
<path d="" fill="#487585" transform="translate(0,0)"/>
<path d="" fill="#262E37" transform="translate(0,0)"/>
<path d="" fill="#477183" transform="translate(0,0)"/>
<path d="" fill="#467384" transform="translate(0,0)"/>
<path d="" fill="#222E33" transform="translate(0,0)"/>
<path d="" fill="#1E2526" transform="translate(0,0)"/>
<path d="" fill="#202C2E" transform="translate(0,0)"/>
<path d="" fill="#487789" transform="translate(0,0)"/>
<path d="" fill="#497689" transform="translate(0,0)"/>
<path d="" fill="#1F2527" transform="translate(0,0)"/>
<path d="" fill="#487486" transform="translate(0,0)"/>
<path d="" fill="#467385" transform="translate(0,0)"/>
<path d="" fill="#477382" transform="translate(0,0)"/>
<path d="" fill="#202A2F" transform="translate(0,0)"/>
<path d="" fill="#467485" transform="translate(0,0)"/>
<path d="" fill="#477184" transform="translate(0,0)"/>
<path d="" fill="#467487" transform="translate(0,0)"/>
<path d="" fill="#487385" transform="translate(0,0)"/>
<path d="" fill="#1F2729" transform="translate(0,0)"/>
<path d="" fill="#437284" transform="translate(0,0)"/>
<path d="" fill="#1E2529" transform="translate(0,0)"/>
<path d="" fill="#212527" transform="translate(0,0)"/>
<path d="" fill="#1F242A" transform="translate(0,0)"/>
<path d="" fill="#20282D" transform="translate(0,0)"/>
<path d="" fill="#212A2D" transform="translate(0,0)"/>
<path d="" fill="#21282C" transform="translate(0,0)"/>
<path d="" fill="#232A2F" transform="translate(0,0)"/>
<path d="" fill="#262B30" transform="translate(0,0)"/>
<path d="" fill="#252E32" transform="translate(0,0)"/>
<path d="" fill="#273034" transform="translate(0,0)"/>
<path d="" fill="#273034" transform="translate(0,0)"/>
<path d="" fill="#2A3235" transform="translate(0,0)"/>
<path d="" fill="#283337" transform="translate(0,0)"/>
<path d="" fill="#2A3539" transform="translate(0,0)"/>
<path d="" fill="#2D363B" transform="translate(0,0)"/>
<path d="" fill="#2B343B" transform="translate(0,0)"/>
<path d="" fill="#2B363E" transform="translate(0,0)"/>
<path d="" fill="#2E393F" transform="translate(0,0)"/>
<path d="" fill="#313F46" transform="translate(0,0)"/>
<path d="" fill="#324046" transform="translate(0,0)"/>
<path d="" fill="#333E46" transform="translate(0,0)"/>
<path d="" fill="#313E47" transform="translate(0,0)"/>
<path d="" fill="#323F47" transform="translate(0,0)"/>
<path d="" fill="#314148" transform="translate(0,0)"/>
<path d="" fill="#35454C" transform="translate(0,0)"/>
<path d="" fill="#37464E" transform="translate(0,0)"/>
<path d="" fill="#32464D" transform="translate(0,0)"/>
<path d="" fill="#39515E" transform="translate(0,0)"/>
<path d="" fill="#4B798B" transform="translate(0,0)"/>
<path d="" fill="#4B7788" transform="translate(0,0)"/>
<path d="" fill="#477081" transform="translate(0,0)"/>
<path d="" fill="#3B5B69" transform="translate(0,0)"/>
<path d="" fill="#497488" transform="translate(0,0)"/>
<path d="" fill="#477786" transform="translate(0,0)"/>
<path d="" fill="#3F6879" transform="translate(0,0)"/>
<path d="" fill="#487687" transform="translate(0,0)"/>
<path d="" fill="#497484" transform="translate(0,0)"/>
<path d="" fill="#497787" transform="translate(0,0)"/>
<path d="" fill="#446B7A" transform="translate(0,0)"/>
<path d="" fill="#466E81" transform="translate(0,0)"/>
<path d="" fill="#457282" transform="translate(0,0)"/>
<path d="" fill="#446E80" transform="translate(0,0)"/>
<path d="" fill="#436C7D" transform="translate(0,0)"/>
<path d="" fill="#487486" transform="translate(0,0)"/>
<path d="" fill="#497687" transform="translate(0,0)"/>
<path d="" fill="#467887" transform="translate(0,0)"/>
<path d="" fill="#487586" transform="translate(0,0)"/>
<path d="" fill="#497886" transform="translate(0,0)"/>
<path d="" fill="#467181" transform="translate(0,0)"/>
<path d="" fill="#467686" transform="translate(0,0)"/>
<path d="" fill="#4A7587" transform="translate(0,0)"/>
<path d="" fill="#4C7887" transform="translate(0,0)"/>
<path d="" fill="#457587" transform="translate(0,0)"/>
<path d="" fill="#487281" transform="translate(0,0)"/>
<path d="" fill="#436D7F" transform="translate(0,0)"/>
<path d="" fill="#487689" transform="translate(0,0)"/>
<path d="" fill="#497888" transform="translate(0,0)"/>
<path d="" fill="#49788B" transform="translate(0,0)"/>
<path d="" fill="#4A7789" transform="translate(0,0)"/>
<path d="" fill="#477488" transform="translate(0,0)"/>
<path d="" fill="#477688" transform="translate(0,0)"/>
<path d="" fill="#4A778D" transform="translate(0,0)"/>
<path d="" fill="#4A7589" transform="translate(0,0)"/>
<path d="" fill="#4B758A" transform="translate(0,0)"/>
<path d="" fill="#497789" transform="translate(0,0)"/>
<path d="" fill="#4A768B" transform="translate(0,0)"/>
<path d="" fill="#446D7F" transform="translate(0,0)"/>
<path d="" fill="#467080" transform="translate(0,0)"/>
<path d="" fill="#426D7D" transform="translate(0,0)"/>
<path d="" fill="#446E80" transform="translate(0,0)"/>
<path d="" fill="#457080" transform="translate(0,0)"/>
<path d="" fill="#496F7F" transform="translate(0,0)"/>
<path d="" fill="#436F81" transform="translate(0,0)"/>
<path d="" fill="#477181" transform="translate(0,0)"/>
<path d="" fill="#497182" transform="translate(0,0)"/>
<path d="" fill="#456E7E" transform="translate(0,0)"/>
<path d="" fill="#507789" transform="translate(0,0)"/>
</svg>
